<svg xmlns="http://www.w3.org/2000/svg" viewBox="0 0 500 500" width="100%" height="100%">
  <path fill="#7B52E8" d="M250 0C154.9 0 77.5 77.4 77.5 172.5c0 95.1 172.5 327.5 172.5 327.5s172.5-232.4 172.5-327.5C422.5 77.4 345.1 0 250 0zm0 275c-56.6 0-102.5-45.9-102.5-102.5S193.4 70 250 70s102.5 45.9 102.5 102.5S306.6 275 250 275z"/>
  <circle fill="#7B52E8" cx="250" cy="172.5" r="25"/>
  <path fill="#7B52E8" d="M250 120c-20.7 0-37.5 16.8-37.5 37.5v40c0 20.7 16.8 37.5 37.5 37.5s37.5-16.8 37.5-37.5v-40c0-20.7-16.8-37.5-37.5-37.5zm-25 77.5c-6.9 0-12.5-5.6-12.5-12.5s5.6-12.5 12.5-12.5 12.5 5.6 12.5 12.5-5.6 12.5-12.5 12.5zm50 0c-6.9 0-12.5-5.6-12.5-12.5s5.6-12.5 12.5-12.5 12.5 5.6 12.5 12.5-5.6 12.5-12.5 12.5z"/>
</svg>
