<svg width="96" height="36" viewBox="0 0 96 36" fill="none" xmlns="http://www.w3.org/2000/svg">
  <path d="M37.2 24.8V11.2H40.8V21.6H46.4V24.8H37.2Z" fill="#333333"/>
  <path d="M47.6 18C47.6 14.4 50.4 11.2 54.4 11.2C58.4 11.2 61.2 14.4 61.2 18C61.2 21.6 58.4 24.8 54.4 24.8C50.4 24.8 47.6 21.6 47.6 18ZM57.6 18C57.6 16 56.4 14.4 54.4 14.4C52.4 14.4 51.2 16 51.2 18C51.2 20 52.4 21.6 54.4 21.6C56.4 21.6 57.6 20 57.6 18Z" fill="#333333"/>
  <path d="M62.8 11.2H66.4L69.6 19.2L72.8 11.2H76.4L71.2 24.8H68L62.8 11.2Z" fill="#333333"/>
  <path d="M77.6 11.2H81.2V14.4H77.6V11.2ZM77.6 16H81.2V24.8H77.6V16Z" fill="#333333"/>
  <path d="M83.2 16H86.8V17.2C87.6 16.4 88.8 15.6 90.4 15.6C93.6 15.6 96 18 96 20.8V24.8H92.4V21.2C92.4 19.6 91.2 18.8 90 18.8C88.8 18.8 87.6 19.6 87.6 21.2V24.8H84V16H83.2Z" fill="#333333"/>
  <path d="M24 0L28.8 8H19.2L24 0Z" fill="#9333EA"/>
  <path d="M14.4 12L19.2 4H28.8L24 12H14.4Z" fill="#9333EA"/>
  <path d="M14.4 12H24L19.2 20H9.6L14.4 12Z" fill="#9333EA"/>
  <path d="M4.8 24L9.6 16H19.2L14.4 24H4.8Z" fill="#9333EA"/>
  <path d="M4.8 24H14.4L9.6 32H0L4.8 24Z" fill="#9333EA"/>
  <path d="M33.6 12L28.8 4H19.2L24 12H33.6Z" fill="#9333EA"/>
  <path d="M33.6 12H24L28.8 20H38.4L33.6 12Z" fill="#9333EA"/>
  <path d="M43.2 24L38.4 16H28.8L33.6 24H43.2Z" fill="#9333EA"/>
  <path d="M43.2 24H33.6L38.4 32H48L43.2 24Z" fill="#9333EA"/>
</svg>
